<svg width="156" height="46" viewBox="0 0 156 46" fill="none" xmlns="http://www.w3.org/2000/svg">
<g clip-path="url(#clip0_3_3)">
<path d="M22.5326 22.0493H16.2903L12.8906 28.8694V29.5316H0V28.8694H2.20038L13.495 9.74295L18.2074 17.9914L17.0175 20.3656H22.2021L22.5326 22.0493Z" fill="#3F4242"/>
<path d="M34.5166 22.9953L34.4788 23.0804L21.201 46H19.0573L15.3365 39.5867L20.7949 29.8437L23.6092 24.8209L24.5724 23.0804L24.6196 22.9953L24.5724 22.9196L23.6092 21.1791L21.1255 16.7144L20.7949 16.1563L16.6492 8.7592L15.7237 7.1133L15.3082 6.41333L19.0573 0H21.201L34.4694 22.9196L34.5166 22.9953Z" fill="url(#paint0_linear_3_3)"/>
<path d="M59.9862 28.8694V14.6617C59.9862 10.4524 58.173 8.25788 54.6694 8.25788C51.8646 8.25788 49.4754 9.86594 46.7934 12.1834V8.04977L36.1881 11.7672L38.5396 13.7915V28.8694H36.4809V29.5316H48.4366V28.8694H46.7934V12.7604C47.615 12.3915 48.4366 12.1456 49.2676 12.1456C50.958 12.1456 51.7419 13.2145 51.7419 16.4401V28.8694H50.0892V29.5316H62.0449V28.8694H59.9862Z" fill="#3F4242"/>
<path d="M75.1622 8.46597C68.4477 8.46597 63.8203 13.1766 63.8203 19.0792C63.8203 25.729 69.2693 29.9478 75.2094 29.9478C83.0476 29.9478 86.8818 25.1141 86.8818 19.0792C86.8818 12.5996 81.971 8.46597 75.1622 8.46597ZM79.8273 28.4627C76.4465 28.4627 69.3071 16.0239 69.3071 11.9753C69.3071 10.6983 69.9304 9.95106 70.9597 9.95106C74.5861 9.95106 81.5177 22.8818 81.5177 26.3533C81.5177 27.7532 80.9417 28.4627 79.8273 28.4627Z" fill="#3F4242"/>
<path d="M111.832 28.8694V8.09705L101.236 11.8145L103.588 13.8388V25.6911C102.879 25.9371 102.143 26.1073 101.482 26.1073C99.4135 26.1073 99.1302 24.7452 99.1302 21.2737V8.29569L88.5344 12.0131L90.8859 14.0374V22.9196C90.8859 27.8384 92.4913 29.9856 96.2027 29.9856C98.5069 29.9856 100.858 28.3302 103.588 26.3533V29.5316H113.891V28.8694H111.832Z" fill="#3F4242"/>
<path d="M134.393 28.8694V17.4333C134.393 11.4362 131.626 8.46597 126.432 8.46597C122.305 8.46597 119.255 10.1592 116.45 13.2996L116.658 13.5077C118.065 12.4294 119.34 11.9375 121.191 11.9375C124.326 11.9375 126.149 14.2077 126.149 18.7481C119.302 19.4954 115.26 22.0115 115.26 25.8141C115.26 28.4154 117.073 29.9478 119.755 29.9478C122.022 29.9478 124.203 28.8316 126.149 27.1762V29.5316H136.452V28.8694H134.393ZM126.149 26.5992C125.771 26.6844 125.44 26.7222 125.195 26.7222C123.542 26.7222 122.721 25.6911 122.721 23.752C122.721 21.5575 123.665 19.9873 126.149 19.2873V26.5992Z" fill="#3F4242"/>
<path d="M155.216 8.42814C153.327 8.42814 150.645 10.3673 148.294 13.4604V8.29572L137.698 11.8524L140.04 13.8766V28.8694H137.981V29.5316H151.382V28.8694H148.294V13.9145C149.739 13.6685 151.675 14.7469 155.962 19.4954H156V8.55111C155.754 8.46598 155.509 8.42814 155.216 8.42814Z" fill="#3F4242"/>
</g>
<defs>
<linearGradient id="paint0_linear_3_3" x1="24.9124" y1="0" x2="24.9124" y2="46" gradientUnits="userSpaceOnUse">
<stop stop-color="#167CD8"/>
<stop offset="1" stop-color="#089438"/>
</linearGradient>
<clipPath id="clip0_3_3">
<rect width="156" height="46" fill="white"/>
</clipPath>
</defs>
</svg>
